<svg width="80" height="12" viewBox="0 0 80 12" fill="none" xmlns="http://www.w3.org/2000/svg">
<path d="M12.232 2.828C12.232 2.74 12.208 2.672 12.16 2.624C12.112 2.576 12.056 2.544 11.992 2.528C11.928 2.504 11.856 2.492 11.776 2.492C11.704 2.484 11.64 2.48 11.584 2.48C11.504 2.48 11.416 2.46 11.32 2.42C11.224 2.38 11.176 2.304 11.176 2.192C11.176 2.096 11.204 2.024 11.26 1.976C11.316 1.92 11.424 1.892 11.584 1.892H14.644C14.716 1.892 14.8 1.904 14.896 1.928C14.992 1.952 15.04 2.036 15.04 2.18C15.04 2.276 15 2.344 14.92 2.384C14.84 2.416 14.76 2.432 14.68 2.432C14.592 2.432 14.492 2.436 14.38 2.444C14.268 2.452 14.156 2.46 14.044 2.468C13.94 2.476 13.844 2.484 13.756 2.492C13.676 2.5 13.62 2.504 13.588 2.504C13.26 2.536 13.064 2.688 13 2.96C12.88 3.432 12.768 3.872 12.664 4.28C12.56 4.68 12.456 5.072 12.352 5.456C12.248 5.84 12.14 6.232 12.028 6.632C11.924 7.024 11.808 7.448 11.68 7.904C11.56 8.36 11.424 8.856 11.272 9.392C11.128 9.928 10.964 10.532 10.78 11.204C10.74 11.364 10.672 11.472 10.576 11.528C10.488 11.584 10.388 11.612 10.276 11.612C10.164 11.612 10.052 11.584 9.94 11.528C9.828 11.48 9.748 11.364 9.7 11.18C9.572 10.668 9.436 10.136 9.292 9.584C9.148 9.032 9.004 8.496 8.86 7.976C8.724 7.448 8.592 6.948 8.464 6.476C8.336 5.996 8.22 5.572 8.116 5.204C8.02 4.828 7.94 4.524 7.876 4.292C7.82 4.052 7.788 3.908 7.78 3.86C7.516 4.772 7.26 5.652 7.012 6.5C6.908 6.868 6.8 7.248 6.688 7.64C6.576 8.024 6.464 8.408 6.352 8.792C6.248 9.168 6.148 9.528 6.052 9.872C5.956 10.216 5.868 10.528 5.788 10.808C5.772 10.872 5.724 10.944 5.644 11.024C5.572 11.104 5.48 11.144 5.368 11.144C5.256 11.144 5.156 11.12 5.068 11.072C4.98 11.032 4.916 10.956 4.876 10.844C4.66 10.148 4.444 9.456 4.228 8.768C4.02 8.072 3.808 7.368 3.592 6.656C3.376 5.936 3.148 5.2 2.908 4.448C2.668 3.688 2.408 2.9 2.128 2.084C2.088 1.924 1.968 1.82 1.768 1.772C1.576 1.724 1.348 1.7 1.084 1.7C0.972 1.7 0.868 1.684 0.772 1.652C0.676 1.612 0.628 1.54 0.628 1.436C0.628 1.324 0.668 1.248 0.748 1.208C0.828 1.168 0.936 1.148 1.072 1.148H3.916C4.06 1.148 4.156 1.172 4.204 1.22C4.26 1.26 4.288 1.32 4.288 1.4C4.288 1.528 4.224 1.612 4.096 1.652C3.968 1.692 3.828 1.72 3.676 1.736C3.532 1.752 3.396 1.776 3.268 1.808C3.14 1.832 3.076 1.892 3.076 1.988C3.076 2.068 3.112 2.248 3.184 2.528C3.256 2.8 3.352 3.14 3.472 3.548C3.6 3.956 3.74 4.412 3.892 4.916C4.052 5.42 4.216 5.944 4.384 6.488C4.552 7.024 4.716 7.564 4.876 8.108C5.044 8.644 5.196 9.148 5.332 9.62C5.62 8.548 5.892 7.552 6.148 6.632C6.252 6.24 6.36 5.844 6.472 5.444C6.584 5.044 6.688 4.668 6.784 4.316C6.88 3.964 6.964 3.652 7.036 3.38C7.116 3.1 7.18 2.88 7.228 2.72C7.276 2.552 7.336 2.396 7.408 2.252C7.48 2.108 7.608 2.036 7.792 2.036C7.96 2.036 8.076 2.092 8.14 2.204C8.212 2.316 8.276 2.488 8.332 2.72C8.532 3.608 8.724 4.416 8.908 5.144C9.1 5.864 9.276 6.528 9.436 7.136C9.604 7.736 9.756 8.288 9.892 8.792C10.036 9.288 10.164 9.752 10.276 10.184C10.332 9.92 10.42 9.564 10.54 9.116C10.66 8.668 10.792 8.188 10.936 7.676C11.088 7.156 11.24 6.628 11.392 6.092C11.544 5.548 11.68 5.048 11.8 4.592C11.928 4.136 12.032 3.748 12.112 3.428C12.192 3.108 12.232 2.908 12.232 2.828ZM16.0906 10.304H16.7746C16.9506 10.304 17.0906 10.324 17.1946 10.364C17.2986 10.404 17.3506 10.504 17.3506 10.664C17.3506 10.768 17.3146 10.852 17.2426 10.916C17.1706 10.972 17.0866 11 16.9906 11H14.8426C14.7466 11 14.6466 11 14.5426 11C14.4466 10.992 14.3586 10.98 14.2786 10.964C14.2066 10.94 14.1426 10.908 14.0866 10.868C14.0386 10.82 14.0146 10.756 14.0146 10.676C14.0146 10.604 14.0306 10.548 14.0626 10.508C14.0946 10.468 14.1426 10.44 14.2066 10.424C14.2706 10.4 14.3426 10.384 14.4226 10.376C14.5106 10.36 14.6106 10.344 14.7226 10.328C14.8986 10.304 15.0186 10.28 15.0826 10.256C15.1466 10.224 15.1866 10.164 15.2026 10.076C15.2266 9.82 15.2386 9.544 15.2386 9.248C15.2466 8.944 15.2506 8.676 15.2506 8.444C15.2506 8.14 15.2466 7.848 15.2386 7.568C15.2306 7.288 15.2186 6.996 15.2026 6.692C15.1946 6.596 15.1786 6.52 15.1546 6.464C15.1306 6.4 15.0866 6.368 15.0226 6.368C14.9906 6.368 14.9266 6.372 14.8306 6.38C14.7426 6.388 14.6466 6.396 14.5426 6.404C14.4466 6.404 14.3546 6.408 14.2666 6.416C14.1786 6.424 14.1186 6.428 14.0866 6.428C14.0226 6.428 13.9506 6.408 13.8706 6.368C13.7906 6.328 13.7506 6.284 13.7506 6.236C13.7506 6.14 13.7706 6.068 13.8106 6.02C13.8506 5.972 13.9066 5.936 13.9786 5.912C14.0586 5.888 14.1506 5.872 14.2546 5.864C14.3666 5.856 14.4906 5.844 14.6266 5.828C14.7306 5.82 14.8426 5.812 14.9626 5.804C15.0826 5.796 15.1986 5.788 15.3106 5.78C15.4306 5.772 15.5386 5.768 15.6346 5.768C15.7306 5.768 15.8106 5.768 15.8746 5.768C15.9706 5.768 16.0306 5.808 16.0546 5.888C16.0786 5.96 16.0906 6.06 16.0906 6.188V10.304ZM14.8786 4.04C14.8786 3.984 14.8906 3.916 14.9146 3.836C14.9466 3.748 14.9866 3.668 15.0346 3.596C15.0906 3.524 15.1626 3.464 15.2506 3.416C15.3386 3.36 15.4426 3.332 15.5626 3.332C15.7226 3.332 15.8626 3.392 15.9826 3.512C16.1026 3.624 16.1626 3.784 16.1626 3.992C16.1626 4.28 16.0826 4.48 15.9226 4.592C15.7706 4.704 15.6226 4.76 15.4786 4.76C15.3106 4.76 15.1666 4.692 15.0466 4.556C14.9346 4.42 14.8786 4.248 14.8786 4.04ZM22.8105 10.316C22.8105 10.476 22.8345 10.568 22.8825 10.592C22.9385 10.616 23.0625 10.628 23.2545 10.628C23.5985 10.628 23.8305 10.656 23.9505 10.712C24.0705 10.768 24.1305 10.872 24.1305 11.024C24.1305 11.12 24.0865 11.2 23.9985 11.264C23.9185 11.328 23.8065 11.36 23.6625 11.36C23.4465 11.36 23.2625 11.36 23.1105 11.36C22.9665 11.36 22.8425 11.356 22.7385 11.348C22.6425 11.348 22.5665 11.344 22.5105 11.336C22.4545 11.336 22.4065 11.336 22.3665 11.336C22.1985 11.32 22.0825 11.252 22.0185 11.132C21.9625 11.012 21.9305 10.852 21.9225 10.652L21.8985 10.004C21.7145 10.364 21.4385 10.64 21.0705 10.832C20.7025 11.016 20.3025 11.108 19.8705 11.108C19.4545 11.108 19.0985 11.02 18.8025 10.844C18.5145 10.668 18.2785 10.448 18.0945 10.184C17.9185 9.912 17.7905 9.616 17.7105 9.296C17.6305 8.976 17.5905 8.672 17.5905 8.384C17.5905 8.24 17.6025 8.064 17.6265 7.856C17.6505 7.64 17.6945 7.416 17.7585 7.184C17.8305 6.952 17.9265 6.724 18.0465 6.5C18.1665 6.268 18.3185 6.064 18.5025 5.888C18.6945 5.704 18.9265 5.556 19.1985 5.444C19.4705 5.332 19.7905 5.276 20.1585 5.276C20.3985 5.276 20.6105 5.3 20.7945 5.348C20.9865 5.388 21.1545 5.444 21.2985 5.516C21.4505 5.588 21.5785 5.668 21.6825 5.756C21.7865 5.844 21.8705 5.928 21.9345 6.008V2.288C21.9345 2.136 21.8865 2.044 21.7905 2.012C21.7025 1.972 21.5905 1.952 21.4545 1.952C21.2545 1.952 21.0665 1.956 20.8905 1.964C20.7145 1.972 20.4745 1.976 20.1705 1.976C20.0905 1.976 20.0105 1.964 19.9305 1.94C19.8505 1.908 19.8105 1.864 19.8105 1.808C19.8105 1.6 19.9785 1.464 20.3145 1.4C20.6505 1.328 21.1745 1.292 21.8865 1.292C22.1905 1.292 22.4185 1.312 22.5705 1.352C22.7305 1.392 22.8105 1.524 22.8105 1.748C22.8105 1.892 22.8105 2.116 22.8105 2.42C22.8105 2.716 22.8065 3.052 22.7985 3.428C22.7985 3.796 22.7945 4.18 22.7865 4.58C22.7865 4.98 22.7825 5.352 22.7745 5.696C22.7745 6.04 22.7745 6.34 22.7745 6.596C22.7745 6.852 22.7745 7.02 22.7745 7.1C22.7745 7.228 22.7745 7.576 22.7745 8.144C22.7825 8.704 22.7945 9.428 22.8105 10.316ZM20.2305 10.388C20.5425 10.388 20.8065 10.3 21.0225 10.124C21.2465 9.948 21.4265 9.74 21.5625 9.5C21.7065 9.252 21.8105 8.992 21.8745 8.72C21.9385 8.448 21.9705 8.216 21.9705 8.024C21.9705 7.864 21.9625 7.704 21.9465 7.544C21.9305 7.376 21.8945 7.192 21.8385 6.992C21.7905 6.88 21.7305 6.764 21.6585 6.644C21.5865 6.524 21.4905 6.416 21.3705 6.32C21.2585 6.224 21.1145 6.144 20.9385 6.08C20.7705 6.016 20.5665 5.984 20.3265 5.984C20.0305 5.984 19.7665 6.052 19.5345 6.188C19.3025 6.316 19.1065 6.488 18.9465 6.704C18.7945 6.92 18.6745 7.172 18.5865 7.46C18.5065 7.74 18.4665 8.032 18.4665 8.336C18.4665 8.688 18.5145 8.996 18.6105 9.26C18.7145 9.516 18.8505 9.728 19.0185 9.896C19.1865 10.064 19.3745 10.188 19.5825 10.268C19.7985 10.348 20.0145 10.388 20.2305 10.388ZM28.1727 7.364C28.3087 7.364 28.3767 7.332 28.3767 7.268C28.3767 7.148 28.3447 7.016 28.2807 6.872C28.2167 6.72 28.1207 6.584 27.9927 6.464C27.8727 6.336 27.7167 6.232 27.5247 6.152C27.3327 6.064 27.1087 6.02 26.8527 6.02C26.6047 6.02 26.3807 6.064 26.1807 6.152C25.9807 6.232 25.8087 6.34 25.6647 6.476C25.5207 6.604 25.4047 6.752 25.3167 6.92C25.2287 7.08 25.1687 7.244 25.1367 7.412L28.1727 7.364ZM25.0887 8.132C25.0807 8.172 25.0727 8.216 25.0647 8.264C25.0647 8.304 25.0647 8.344 25.0647 8.384C25.0647 8.624 25.1047 8.864 25.1847 9.104C25.2647 9.344 25.3807 9.56 25.5327 9.752C25.6927 9.944 25.8847 10.1 26.1087 10.22C26.3407 10.332 26.6047 10.388 26.9007 10.388C27.2127 10.388 27.4767 10.34 27.6927 10.244C27.9087 10.148 28.0807 10.028 28.2087 9.884C28.3447 9.732 28.4407 9.572 28.4967 9.404C28.5607 9.228 28.5927 9.068 28.5927 8.924C28.5927 8.86 28.6167 8.78 28.6647 8.684C28.7207 8.588 28.8327 8.54 29.0007 8.54C29.0967 8.54 29.1807 8.576 29.2527 8.648C29.3247 8.712 29.3607 8.804 29.3607 8.924C29.3607 9.204 29.3167 9.48 29.2287 9.752C29.1487 10.016 29.0087 10.252 28.8087 10.46C28.6087 10.668 28.3367 10.836 27.9927 10.964C27.6487 11.092 27.2207 11.156 26.7087 11.156C26.2927 11.156 25.9247 11.088 25.6047 10.952C25.2927 10.808 25.0287 10.608 24.8127 10.352C24.5967 10.096 24.4327 9.796 24.3207 9.452C24.2167 9.1 24.1647 8.712 24.1647 8.288C24.1647 7.824 24.2287 7.404 24.3567 7.028C24.4847 6.652 24.6687 6.336 24.9087 6.08C25.1487 5.824 25.4367 5.628 25.7727 5.492C26.1087 5.348 26.4807 5.276 26.8887 5.276C27.3287 5.276 27.7007 5.356 28.0047 5.516C28.3087 5.668 28.5527 5.856 28.7367 6.08C28.9207 6.296 29.0527 6.524 29.1327 6.764C29.2127 6.996 29.2527 7.192 29.2527 7.352C29.2527 7.536 29.2087 7.708 29.1207 7.868C29.0327 8.028 28.9087 8.108 28.7487 8.108C28.5007 8.108 28.2047 8.112 27.8607 8.12C27.5247 8.12 27.1647 8.12 26.7807 8.12C26.7007 8.12 26.5847 8.12 26.4327 8.12C26.2807 8.12 26.1207 8.124 25.9527 8.132C25.7847 8.132 25.6207 8.132 25.4607 8.132C25.3087 8.132 25.1847 8.132 25.0887 8.132ZM31.0192 9.98C31.0192 10.148 31.0232 10.3 31.0312 10.436L31.0552 10.892C31.0552 10.988 31.0232 11.08 30.9592 11.168C30.8952 11.264 30.7912 11.312 30.6472 11.312C30.5112 11.312 30.4072 11.26 30.3352 11.156C30.2632 11.052 30.2272 10.972 30.2272 10.916C30.2272 10.868 30.2272 10.796 30.2272 10.7C30.2352 10.604 30.2432 10.496 30.2512 10.376C30.2592 10.256 30.2632 10.136 30.2632 10.016C30.2712 9.896 30.2752 9.792 30.2752 9.704C30.2752 9.576 30.2712 9.468 30.2632 9.38C30.2632 9.292 30.2632 9.208 30.2632 9.128C30.2632 9.04 30.2592 8.952 30.2512 8.864C30.2512 8.776 30.2512 8.668 30.2512 8.54C30.2512 8.428 30.2752 8.312 30.3232 8.192C30.3712 8.072 30.4832 8.012 30.6592 8.012C30.7632 8.012 30.8432 8.04 30.8992 8.096C30.9552 8.144 30.9992 8.212 31.0312 8.3C31.0632 8.38 31.0832 8.468 31.0912 8.564C31.0992 8.66 31.1032 8.752 31.1032 8.84C31.1032 9.048 31.1512 9.248 31.2472 9.44C31.3512 9.632 31.4992 9.808 31.6912 9.968C31.8832 10.12 32.1192 10.244 32.3992 10.34C32.6792 10.428 32.9992 10.472 33.3592 10.472C33.6472 10.472 33.9192 10.444 34.1752 10.388C34.4392 10.324 34.6672 10.24 34.8592 10.136C35.0592 10.032 35.2192 9.908 35.3392 9.764C35.4592 9.612 35.5192 9.444 35.5192 9.26C35.5192 9.02 35.4192 8.804 35.2192 8.612C35.0272 8.42 34.7832 8.244 34.4872 8.084C34.1912 7.924 33.8752 7.776 33.5392 7.64C33.2032 7.504 32.8952 7.368 32.6152 7.232C32.3592 7.112 32.0952 6.98 31.8232 6.836C31.5592 6.684 31.3152 6.496 31.0912 6.272C30.8752 6.04 30.6952 5.752 30.5512 5.408C30.4152 5.064 30.3472 4.632 30.3472 4.112C30.3472 3.664 30.4392 3.248 30.6232 2.864C30.8152 2.48 31.0592 2.148 31.3552 1.868C31.6512 1.58 31.9832 1.356 32.3512 1.196C32.7192 1.036 33.0832 0.956 33.4432 0.956C34.0272 0.956 34.5232 1.116 34.9312 1.436C35.3392 1.748 35.6632 2.252 35.9032 2.948C35.8712 2.444 35.8472 2.072 35.8312 1.832C35.8152 1.584 35.8072 1.456 35.8072 1.448C35.8072 1.352 35.8312 1.26 35.8792 1.172C35.9352 1.076 36.0472 1.028 36.2152 1.028C36.3112 1.028 36.3872 1.044 36.4432 1.076C36.4992 1.108 36.5392 1.144 36.5632 1.184C36.5952 1.224 36.6152 1.268 36.6232 1.316C36.6312 1.364 36.6352 1.4 36.6352 1.424C36.6352 1.704 36.6272 1.996 36.6112 2.3C36.5952 2.596 36.5872 2.888 36.5872 3.176C36.5872 3.432 36.5912 3.672 36.5992 3.896C36.6072 4.12 36.6112 4.36 36.6112 4.616C36.6112 4.728 36.5752 4.824 36.5032 4.904C36.4312 4.984 36.3232 5.024 36.1792 5.024C36.0192 5.024 35.9112 4.952 35.8552 4.808C35.7992 4.656 35.7712 4.492 35.7712 4.316C35.7392 3.932 35.6512 3.58 35.5072 3.26C35.3632 2.94 35.1872 2.664 34.9792 2.432C34.7712 2.192 34.5392 2.008 34.2832 1.88C34.0352 1.744 33.7872 1.676 33.5392 1.676C33.2112 1.676 32.9032 1.748 32.6152 1.892C32.3352 2.036 32.0912 2.228 31.8832 2.468C31.6752 2.708 31.5072 2.98 31.3792 3.284C31.2592 3.588 31.1992 3.9 31.1992 4.22C31.1992 4.58 31.2432 4.884 31.3312 5.132C31.4192 5.372 31.5352 5.576 31.6792 5.744C31.8312 5.904 31.9992 6.036 32.1832 6.14C32.3752 6.244 32.5672 6.34 32.7592 6.428C32.9352 6.508 33.1472 6.596 33.3952 6.692C33.6432 6.788 33.8992 6.9 34.1632 7.028C34.4352 7.148 34.7032 7.284 34.9672 7.436C35.2312 7.58 35.4672 7.744 35.6752 7.928C35.8832 8.104 36.0512 8.304 36.1792 8.528C36.3072 8.752 36.3712 8.996 36.3712 9.26C36.3712 9.62 36.2712 9.924 36.0712 10.172C35.8792 10.42 35.6352 10.62 35.3392 10.772C35.0432 10.916 34.7192 11.02 34.3672 11.084C34.0232 11.156 33.6992 11.192 33.3952 11.192C33.1792 11.192 32.9512 11.172 32.7112 11.132C32.4792 11.092 32.2552 11.028 32.0392 10.94C31.8232 10.844 31.6232 10.72 31.4392 10.568C31.2632 10.408 31.1232 10.212 31.0192 9.98ZM41.3094 7.364C41.4454 7.364 41.5134 7.332 41.5134 7.268C41.5134 7.148 41.4814 7.016 41.4174 6.872C41.3534 6.72 41.2574 6.584 41.1294 6.464C41.0094 6.336 40.8534 6.232 40.6614 6.152C40.4694 6.064 40.2454 6.02 39.9894 6.02C39.7414 6.02 39.5174 6.064 39.3174 6.152C39.1174 6.232 38.9454 6.34 38.8014 6.476C38.6574 6.604 38.5414 6.752 38.4534 6.92C38.3654 7.08 38.3054 7.244 38.2734 7.412L41.3094 7.364ZM38.2254 8.132C38.2174 8.172 38.2094 8.216 38.2014 8.264C38.2014 8.304 38.2014 8.344 38.2014 8.384C38.2014 8.624 38.2414 8.864 38.3214 9.104C38.4014 9.344 38.5174 9.56 38.6694 9.752C38.8294 9.944 39.0214 10.1 39.2454 10.22C39.4774 10.332 39.7414 10.388 40.0374 10.388C40.3494 10.388 40.6134 10.34 40.8294 10.244C41.0454 10.148 41.2174 10.028 41.3454 9.884C41.4814 9.732 41.5774 9.572 41.6334 9.404C41.6974 9.228 41.7294 9.068 41.7294 8.924C41.7294 8.86 41.7534 8.78 41.8014 8.684C41.8574 8.588 41.9694 8.54 42.1374 8.54C42.2334 8.54 42.3174 8.576 42.3894 8.648C42.4614 8.712 42.4974 8.804 42.4974 8.924C42.4974 9.204 42.4534 9.48 42.3654 9.752C42.2854 10.016 42.1454 10.252 41.9454 10.46C41.7454 10.668 41.4734 10.836 41.1294 10.964C40.7854 11.092 40.3574 11.156 39.8454 11.156C39.4294 11.156 39.0614 11.088 38.7414 10.952C38.4294 10.808 38.1654 10.608 37.9494 10.352C37.7334 10.096 37.5694 9.796 37.4574 9.452C37.3534 9.1 37.3014 8.712 37.3014 8.288C37.3014 7.824 37.3654 7.404 37.4934 7.028C37.6214 6.652 37.8054 6.336 38.0454 6.08C38.2854 5.824 38.5734 5.628 38.9094 5.492C39.2454 5.348 39.6174 5.276 40.0254 5.276C40.4654 5.276 40.8374 5.356 41.1414 5.516C41.4454 5.668 41.6894 5.856 41.8734 6.08C42.0574 6.296 42.1894 6.524 42.2694 6.764C42.3494 6.996 42.3894 7.192 42.3894 7.352C42.3894 7.536 42.3454 7.708 42.2574 7.868C42.1694 8.028 42.0454 8.108 41.8854 8.108C41.6374 8.108 41.3414 8.112 40.9974 8.12C40.6614 8.12 40.3014 8.12 39.9174 8.12C39.8374 8.12 39.7214 8.12 39.5694 8.12C39.4174 8.12 39.2574 8.124 39.0894 8.132C38.9214 8.132 38.7574 8.132 38.5974 8.132C38.4454 8.132 38.3214 8.132 38.2254 8.132ZM44.8399 1.58C44.8399 1.78 44.8359 1.992 44.8279 2.216C44.8279 2.432 44.8279 2.636 44.8279 2.828C44.8279 3.012 44.8279 3.168 44.8279 3.296C44.8279 3.416 44.8279 3.48 44.8279 3.488C44.8279 5.296 44.8319 6.752 44.8399 7.856C44.8479 8.96 44.8519 9.78 44.8519 10.316H45.4039C45.6519 10.316 45.8119 10.356 45.8839 10.436C45.9639 10.516 46.0039 10.604 46.0039 10.7C46.0039 10.764 45.9679 10.832 45.8959 10.904C45.8319 10.976 45.7159 11.012 45.5479 11.012C45.4919 11.012 45.4159 11.008 45.3199 11C45.2239 11 45.1199 11 45.0079 11C44.9039 10.992 44.7919 10.988 44.6719 10.988C44.5599 10.98 44.4519 10.976 44.3479 10.976C44.2679 10.976 44.1759 10.98 44.0719 10.988C43.9759 10.988 43.8759 10.988 43.7719 10.988C43.6759 10.988 43.5799 10.992 43.4839 11C43.3959 11 43.3199 11 43.2559 11C43.0639 11 42.9279 10.968 42.8479 10.904C42.7759 10.832 42.7399 10.76 42.7399 10.688C42.7399 10.568 42.7719 10.488 42.8359 10.448C42.8999 10.4 42.9519 10.376 42.9919 10.376L43.3879 10.352C43.7479 10.328 43.9359 10.204 43.9519 9.98C43.9599 9.756 43.9679 9.52 43.9759 9.272C43.9839 9.024 43.9919 8.744 43.9999 8.432C44.0079 8.12 44.0119 7.768 44.0119 7.376C44.0119 6.984 44.0119 6.54 44.0119 6.044C44.0119 5.532 44.0119 5.084 44.0119 4.7C44.0119 4.308 44.0079 3.96 43.9999 3.656C43.9999 3.344 43.9999 3.064 43.9999 2.816C43.9999 2.568 43.9999 2.328 43.9999 2.096C43.9999 1.968 43.9879 1.88 43.9639 1.832C43.9399 1.784 43.8759 1.76 43.7719 1.76H43.0279C42.8599 1.76 42.7279 1.744 42.6319 1.712C42.5279 1.672 42.4759 1.604 42.4759 1.508C42.4759 1.428 42.5359 1.368 42.6559 1.328C42.7679 1.28 42.9079 1.244 43.0759 1.22C43.2519 1.196 43.4359 1.18 43.6279 1.172C43.8199 1.164 43.9959 1.16 44.1559 1.16C44.3799 1.16 44.5479 1.18 44.6599 1.22C44.7799 1.252 44.8399 1.372 44.8399 1.58ZM50.2743 7.364C50.4103 7.364 50.4783 7.332 50.4783 7.268C50.4783 7.148 50.4463 7.016 50.3823 6.872C50.3183 6.72 50.2223 6.584 50.0943 6.464C49.9743 6.336 49.8183 6.232 49.6263 6.152C49.4343 6.064 49.2103 6.02 48.9543 6.02C48.7063 6.02 48.4823 6.064 48.2823 6.152C48.0823 6.232 47.9103 6.34 47.7663 6.476C47.6223 6.604 47.5063 6.752 47.4183 6.92C47.3303 7.08 47.2703 7.244 47.2383 7.412L50.2743 7.364ZM47.1903 8.132C47.1823 8.172 47.1743 8.216 47.1663 8.264C47.1663 8.304 47.1663 8.344 47.1663 8.384C47.1663 8.624 47.2063 8.864 47.2863 9.104C47.3663 9.344 47.4823 9.56 47.6343 9.752C47.7943 9.944 47.9863 10.1 48.2103 10.22C48.4423 10.332 48.7063 10.388 49.0023 10.388C49.3143 10.388 49.5783 10.34 49.7943 10.244C50.0103 10.148 50.1823 10.028 50.3103 9.884C50.4463 9.732 50.5423 9.572 50.5983 9.404C50.6623 9.228 50.6943 9.068 50.6943 8.924C50.6943 8.86 50.7183 8.78 50.7663 8.684C50.8223 8.588 50.9343 8.54 51.1023 8.54C51.1983 8.54 51.2823 8.576 51.3543 8.648C51.4263 8.712 51.4623 8.804 51.4623 8.924C51.4623 9.204 51.4183 9.48 51.3303 9.752C51.2503 10.016 51.1103 10.252 50.9103 10.46C50.7103 10.668 50.4383 10.836 50.0943 10.964C49.7503 11.092 49.3223 11.156 48.8103 11.156C48.3943 11.156 48.0263 11.088 47.7063 10.952C47.3943 10.808 47.1303 10.608 46.9143 10.352C46.6983 10.096 46.5343 9.796 46.4223 9.452C46.3183 9.1 46.2663 8.712 46.2663 8.288C46.2663 7.824 46.3303 7.404 46.4583 7.028C46.5863 6.652 46.7703 6.336 47.0103 6.08C47.2503 5.824 47.5383 5.628 47.8743 5.492C48.2103 5.348 48.5823 5.276 48.9902 5.276C49.4303 5.276 49.8023 5.356 50.1063 5.516C50.4103 5.668 50.6543 5.856 50.8383 6.08C51.0223 6.296 51.1543 6.524 51.2343 6.764C51.3143 6.996 51.3543 7.192 51.3543 7.352C51.3543 7.536 51.3103 7.708 51.2223 7.868C51.1343 8.028 51.0103 8.108 50.8503 8.108C50.6023 8.108 50.3063 8.112 49.9623 8.12C49.6263 8.12 49.2663 8.12 48.8823 8.12C48.8023 8.12 48.6863 8.12 48.5343 8.12C48.3823 8.12 48.2223 8.124 48.0543 8.132C47.8863 8.132 47.7223 8.132 47.5623 8.132C47.4103 8.132 47.2863 8.132 47.1903 8.132ZM56.3848 5.864C56.3768 5.776 56.3688 5.672 56.3608 5.552C56.3608 5.432 56.3608 5.316 56.3608 5.204C56.3608 5.116 56.3888 5.04 56.4448 4.976C56.5008 4.904 56.5968 4.868 56.7328 4.868C56.8688 4.868 56.9688 4.904 57.0328 4.976C57.0968 5.048 57.1288 5.144 57.1288 5.264C57.1288 5.376 57.1288 5.524 57.1288 5.708C57.1288 5.892 57.1248 6.084 57.1168 6.284C57.1168 6.476 57.1168 6.664 57.1168 6.848C57.1168 7.032 57.1168 7.176 57.1168 7.28C57.1168 7.344 57.0728 7.404 56.9848 7.46C56.9048 7.516 56.8048 7.544 56.6848 7.544C56.6208 7.544 56.5488 7.524 56.4688 7.484C56.3968 7.444 56.3608 7.38 56.3608 7.292C56.3608 6.876 56.2528 6.548 56.0368 6.308C55.8208 6.06 55.4448 5.936 54.9088 5.936C54.6448 5.936 54.3968 5.996 54.1648 6.116C53.9408 6.228 53.7488 6.388 53.5888 6.596C53.4288 6.804 53.3008 7.052 53.2048 7.34C53.1168 7.62 53.0728 7.932 53.0728 8.276C53.0728 8.908 53.2208 9.408 53.5168 9.776C53.8208 10.144 54.2448 10.328 54.7888 10.328C55.2528 10.328 55.6408 10.244 55.9528 10.076C56.2648 9.908 56.4928 9.704 56.6368 9.464C56.7168 9.336 56.7888 9.252 56.8528 9.212C56.9248 9.172 56.9888 9.152 57.0448 9.152C57.1328 9.152 57.2128 9.176 57.2848 9.224C57.3648 9.272 57.4048 9.352 57.4048 9.464C57.4048 9.528 57.3928 9.584 57.3688 9.632C57.3528 9.672 57.3248 9.724 57.2848 9.788C56.7248 10.644 55.9088 11.072 54.8368 11.072C54.4128 11.072 54.0328 11 53.6968 10.856C53.3688 10.712 53.0888 10.516 52.8568 10.268C52.6328 10.012 52.4568 9.716 52.3288 9.38C52.2088 9.044 52.1488 8.684 52.1488 8.3C52.1488 7.868 52.2168 7.464 52.3528 7.088C52.4968 6.712 52.6928 6.388 52.9408 6.116C53.1888 5.836 53.4848 5.616 53.8288 5.456C54.1728 5.296 54.5448 5.216 54.9448 5.216C55.2488 5.216 55.5208 5.26 55.7608 5.348C56.0008 5.428 56.2088 5.6 56.3848 5.864ZM58.8242 6.152C58.6722 6.152 58.5002 6.156 58.3082 6.164C58.1162 6.172 57.9482 6.176 57.8042 6.176C57.7562 6.176 57.6882 6.152 57.6002 6.104C57.5042 6.056 57.4562 5.96 57.4562 5.816C57.4562 5.704 57.4962 5.624 57.5762 5.576C57.6562 5.52 57.7522 5.484 57.8642 5.468L58.4762 5.408C58.6362 5.392 58.7322 5.356 58.7642 5.3C58.7962 5.236 58.8122 5.136 58.8122 5C58.8122 4.832 58.8122 4.652 58.8122 4.46C58.8202 4.26 58.8442 4.08 58.8842 3.92C58.9242 3.76 58.9882 3.664 59.0762 3.632C59.1642 3.6 59.2282 3.584 59.2682 3.584C59.3722 3.584 59.4642 3.612 59.5442 3.668C59.6242 3.716 59.6642 3.86 59.6642 4.1V5.384C59.7202 5.384 59.8282 5.384 59.9882 5.384C60.1482 5.376 60.3162 5.368 60.4922 5.36C60.6762 5.352 60.8442 5.348 60.9962 5.348C61.1482 5.34 61.2482 5.336 61.2962 5.336C61.3922 5.336 61.4882 5.364 61.5842 5.42C61.6802 5.468 61.7282 5.556 61.7282 5.684C61.7282 5.796 61.6922 5.88 61.6202 5.936C61.5482 5.984 61.4762 6.016 61.4042 6.032C61.1162 6.064 60.8202 6.084 60.5162 6.092C60.2202 6.1 59.9362 6.112 59.6642 6.128V9.176C59.6642 9.304 59.6722 9.44 59.6882 9.584C59.7042 9.728 59.7322 9.864 59.7722 9.992C59.8202 10.112 59.8842 10.212 59.9642 10.292C60.0522 10.372 60.1682 10.412 60.3122 10.412C60.4402 10.412 60.5442 10.392 60.6242 10.352C60.7042 10.304 60.7722 10.248 60.8282 10.184C60.8842 10.12 60.9282 10.052 60.9602 9.98C60.9922 9.908 61.0202 9.84 61.0442 9.776C61.0682 9.712 61.0882 9.648 61.1042 9.584C61.1282 9.52 61.1562 9.464 61.1882 9.416C61.2202 9.36 61.2642 9.316 61.3202 9.284C61.3762 9.252 61.4522 9.236 61.5482 9.236C61.6122 9.236 61.6642 9.252 61.7042 9.284C61.7442 9.316 61.7722 9.352 61.7882 9.392C61.8122 9.432 61.8282 9.472 61.8362 9.512C61.8442 9.552 61.8482 9.58 61.8482 9.596C61.8482 9.708 61.8162 9.852 61.7522 10.028C61.6882 10.204 61.5842 10.376 61.4402 10.544C61.3042 10.704 61.1282 10.844 60.9122 10.964C60.6962 11.076 60.4402 11.132 60.1442 11.132C59.6882 11.132 59.3522 10.968 59.1362 10.64C59.0562 10.52 58.9922 10.392 58.9442 10.256C58.9042 10.112 58.8722 9.968 58.8482 9.824C58.8242 9.672 58.8082 9.528 58.8002 9.392C58.8002 9.256 58.8002 9.132 58.8002 9.02L58.8242 6.152ZM64.3367 10.304H65.0207C65.1967 10.304 65.3367 10.324 65.4407 10.364C65.5447 10.404 65.5967 10.504 65.5967 10.664C65.5967 10.768 65.5607 10.852 65.4887 10.916C65.4167 10.972 65.3327 11 65.2367 11H63.0887C62.9927 11 62.8927 11 62.7887 11C62.6927 10.992 62.6047 10.98 62.5247 10.964C62.4527 10.94 62.3887 10.908 62.3327 10.868C62.2847 10.82 62.2607 10.756 62.2607 10.676C62.2607 10.604 62.2767 10.548 62.3087 10.508C62.3407 10.468 62.3887 10.44 62.4527 10.424C62.5167 10.4 62.5887 10.384 62.6687 10.376C62.7567 10.36 62.8567 10.344 62.9687 10.328C63.1447 10.304 63.2647 10.28 63.3287 10.256C63.3927 10.224 63.4327 10.164 63.4487 10.076C63.4727 9.82 63.4847 9.544 63.4847 9.248C63.4927 8.944 63.4967 8.676 63.4967 8.444C63.4967 8.14 63.4927 7.848 63.4847 7.568C63.4767 7.288 63.4647 6.996 63.4487 6.692C63.4407 6.596 63.4247 6.52 63.4007 6.464C63.3767 6.4 63.3327 6.368 63.2687 6.368C63.2367 6.368 63.1727 6.372 63.0767 6.38C62.9887 6.388 62.8927 6.396 62.7887 6.404C62.6927 6.404 62.6007 6.408 62.5127 6.416C62.4247 6.424 62.3647 6.428 62.3327 6.428C62.2687 6.428 62.1967 6.408 62.1167 6.368C62.0367 6.328 61.9967 6.284 61.9967 6.236C61.9967 6.14 62.0167 6.068 62.0567 6.02C62.0967 5.972 62.1527 5.936 62.2247 5.912C62.3047 5.888 62.3967 5.872 62.5007 5.864C62.6127 5.856 62.7367 5.844 62.8727 5.828C62.9767 5.82 63.0887 5.812 63.2087 5.804C63.3287 5.796 63.4447 5.788 63.5567 5.78C63.6767 5.772 63.7847 5.768 63.8807 5.768C63.9767 5.768 64.0567 5.768 64.1207 5.768C64.2167 5.768 64.2767 5.808 64.3007 5.888C64.3247 5.96 64.3367 6.06 64.3367 6.188V10.304ZM63.1247 4.04C63.1247 3.984 63.1367 3.916 63.1607 3.836C63.1927 3.748 63.2327 3.668 63.2807 3.596C63.3367 3.524 63.4087 3.464 63.4967 3.416C63.5847 3.36 63.6887 3.332 63.8087 3.332C63.9687 3.332 64.1087 3.392 64.2287 3.512C64.3487 3.624 64.4087 3.784 64.4087 3.992C64.4087 4.28 64.3287 4.48 64.1687 4.592C64.0167 4.704 63.8687 4.76 63.7247 4.76C63.5567 4.76 63.4127 4.692 63.2927 4.556C63.1807 4.42 63.1247 4.248 63.1247 4.04ZM71.4766 8.204C71.4766 8.692 71.3886 9.12 71.2126 9.488C71.0366 9.856 70.8086 10.164 70.5286 10.412C70.2566 10.652 69.9486 10.832 69.6046 10.952C69.2606 11.072 68.9206 11.132 68.5846 11.132C68.1766 11.132 67.8046 11.064 67.4686 10.928C67.1326 10.784 66.8406 10.584 66.5926 10.328C66.3526 10.072 66.1646 9.768 66.0286 9.416C65.8926 9.056 65.8246 8.664 65.8246 8.24C65.8246 7.824 65.8926 7.44 66.0286 7.088C66.1646 6.728 66.3566 6.42 66.6046 6.164C66.8606 5.908 67.1646 5.708 67.5166 5.564C67.8766 5.412 68.2806 5.336 68.7286 5.336C69.1766 5.336 69.5686 5.416 69.9046 5.576C70.2486 5.728 70.5366 5.936 70.7686 6.2C71.0006 6.464 71.1766 6.768 71.2966 7.112C71.4166 7.456 71.4766 7.82 71.4766 8.204ZM68.7166 6.056C68.4526 6.056 68.2006 6.104 67.9606 6.2C67.7206 6.296 67.5086 6.436 67.3246 6.62C67.1406 6.804 66.9926 7.032 66.8806 7.304C66.7766 7.576 66.7246 7.884 66.7246 8.228C66.7246 8.596 66.7806 8.916 66.8926 9.188C67.0126 9.46 67.1646 9.688 67.3486 9.872C67.5326 10.048 67.7366 10.18 67.9606 10.268C68.1846 10.356 68.4006 10.4 68.6086 10.4C68.8166 10.4 69.0366 10.356 69.2686 10.268C69.5006 10.18 69.7166 10.048 69.9166 9.872C70.1166 9.688 70.2806 9.456 70.4086 9.176C70.5366 8.896 70.6006 8.564 70.6006 8.18C70.6006 7.868 70.5526 7.584 70.4566 7.328C70.3686 7.064 70.2406 6.84 70.0726 6.656C69.9126 6.464 69.7166 6.316 69.4846 6.212C69.2526 6.108 68.9966 6.056 68.7166 6.056ZM77.9601 10.652H78.6081C78.6641 10.652 78.7281 10.656 78.8001 10.664C78.8801 10.672 78.9561 10.692 79.0281 10.724C79.1001 10.748 79.1601 10.788 79.2081 10.844C79.2561 10.892 79.2801 10.96 79.2801 11.048C79.2801 11.168 79.2361 11.248 79.1481 11.288C79.0601 11.328 78.9561 11.348 78.8361 11.348C78.7961 11.348 78.6641 11.348 78.4401 11.348C78.2241 11.356 77.9841 11.36 77.7201 11.36C77.4641 11.36 77.2241 11.36 77.0001 11.36C76.7841 11.368 76.6601 11.372 76.6281 11.372C76.5241 11.372 76.4321 11.348 76.3521 11.3C76.2721 11.26 76.2321 11.172 76.2321 11.036C76.2321 10.924 76.2681 10.844 76.3401 10.796C76.4201 10.74 76.4961 10.704 76.5681 10.688C76.7681 10.664 76.9001 10.628 76.9641 10.58C77.0281 10.532 77.0681 10.412 77.0841 10.22C77.1001 9.9 77.1081 9.628 77.1081 9.404C77.1161 9.18 77.1201 9.06 77.1201 9.044C77.1201 8.676 77.1041 8.324 77.0721 7.988C77.0481 7.644 76.9921 7.348 76.9041 7.1C76.8241 6.844 76.7041 6.64 76.5441 6.488C76.3921 6.336 76.1841 6.26 75.9201 6.26C75.5841 6.26 75.2841 6.376 75.0201 6.608C74.7641 6.832 74.5681 7.096 74.4321 7.4C74.3441 7.584 74.2761 7.8 74.2281 8.048C74.1881 8.288 74.1681 8.528 74.1681 8.768V10.112H74.9721C75.1081 10.112 75.2201 10.136 75.3081 10.184C75.3961 10.232 75.4401 10.336 75.4401 10.496C75.4401 10.632 75.4001 10.72 75.3201 10.76C75.2481 10.8 75.1321 10.82 74.9721 10.82C74.9401 10.82 74.8161 10.82 74.6001 10.82C74.3921 10.82 74.1601 10.824 73.9041 10.832C73.6481 10.832 73.4081 10.832 73.1841 10.832C72.9681 10.832 72.8401 10.832 72.8001 10.832C72.6721 10.832 72.5521 10.816 72.4401 10.784C72.3361 10.752 72.2841 10.66 72.2841 10.508C72.2841 10.364 72.3321 10.268 72.4281 10.22C72.5321 10.172 72.6321 10.148 72.7281 10.148H72.9681C73.0401 10.148 73.0961 10.128 73.1361 10.088C73.1841 10.04 73.2201 9.984 73.2441 9.92C73.2681 9.848 73.2841 9.776 73.2921 9.704C73.3001 9.632 73.3041 9.564 73.3041 9.5C73.3041 9.364 73.3081 9.148 73.3161 8.852C73.3241 8.548 73.3321 8.236 73.3401 7.916C73.3481 7.596 73.3521 7.308 73.3521 7.052C73.3601 6.796 73.3641 6.644 73.3641 6.596C73.3641 6.332 73.2961 6.2 73.1601 6.2H72.5361C72.4561 6.2 72.3681 6.2 72.2721 6.2C72.1841 6.192 72.1001 6.184 72.0201 6.176C71.9481 6.16 71.8841 6.14 71.8281 6.116C71.7801 6.084 71.7561 6.044 71.7561 5.996C71.7561 5.916 71.7841 5.852 71.8401 5.804C71.9041 5.748 72.0121 5.704 72.1641 5.672C72.3161 5.64 72.5161 5.62 72.7641 5.612C73.0201 5.596 73.3401 5.588 73.7241 5.588C73.9321 5.588 74.0601 5.612 74.1081 5.66C74.1561 5.708 74.1841 5.812 74.1921 5.972L74.2281 6.716C74.4041 6.34 74.6681 6.052 75.0201 5.852C75.3721 5.644 75.7481 5.54 76.1481 5.54C76.3241 5.54 76.5161 5.572 76.7241 5.636C76.9401 5.692 77.1401 5.808 77.3241 5.984C77.5081 6.152 77.6601 6.388 77.7801 6.692C77.9001 6.996 77.9601 7.392 77.9601 7.88V10.652Z" fill="#212529"/>
</svg>
